<svg xmlns="http://www.w3.org/2000/svg" width="32" height="32" viewBox="0 0 32 32">
  <rect width="32" height="32" rx="4" fill="#000000"/>

  <g transform="translate(16,16)">
    <!-- 16 petals at 22.5° intervals -->
    <ellipse cx="0" cy="-8" rx="1.5" ry="4.5" fill="#ffffff" transform="rotate(0)"/>
    <ellipse cx="0" cy="-8" rx="1.5" ry="4.5" fill="#ffffff" transform="rotate(22.5)"/>
    <ellipse cx="0" cy="-8" rx="1.5" ry="4.5" fill="#ffffff" transform="rotate(45)"/>
    <ellipse cx="0" cy="-8" rx="1.5" ry="4.5" fill="#ffffff" transform="rotate(67.5)"/>
    <ellipse cx="0" cy="-8" rx="1.5" ry="4.5" fill="#ffffff" transform="rotate(90)"/>
    <ellipse cx="0" cy="-8" rx="1.5" ry="4.5" fill="#ffffff" transform="rotate(112.5)"/>
    <ellipse cx="0" cy="-8" rx="1.5" ry="4.5" fill="#ffffff" transform="rotate(135)"/>
    <ellipse cx="0" cy="-8" rx="1.5" ry="4.5" fill="#ffffff" transform="rotate(157.5)"/>
    <ellipse cx="0" cy="-8" rx="1.5" ry="4.5" fill="#ffffff" transform="rotate(180)"/>
    <ellipse cx="0" cy="-8" rx="1.5" ry="4.5" fill="#ffffff" transform="rotate(202.5)"/>
    <ellipse cx="0" cy="-8" rx="1.5" ry="4.5" fill="#ffffff" transform="rotate(225)"/>
    <ellipse cx="0" cy="-8" rx="1.5" ry="4.5" fill="#ffffff" transform="rotate(247.5)"/>
    <ellipse cx="0" cy="-8" rx="1.5" ry="4.5" fill="#ffffff" transform="rotate(270)"/>
    <ellipse cx="0" cy="-8" rx="1.5" ry="4.5" fill="#ffffff" transform="rotate(292.5)"/>
    <ellipse cx="0" cy="-8" rx="1.5" ry="4.5" fill="#ffffff" transform="rotate(315)"/>
    <ellipse cx="0" cy="-8" rx="1.5" ry="4.5" fill="#ffffff" transform="rotate(337.5)"/>

    <!-- Center disc -->
    <circle cx="0" cy="0" r="6" fill="#ff4d00"/>
  </g>
</svg>
