<?xml version="1.0" encoding="UTF-8"?>
<svg xmlns="http://www.w3.org/2000/svg" width="512" height="512" viewBox="0 0 512 512">
  <path d="M 188 94 L 185 95 L 182 95 L 179 95 L 176 95 L 173 96 L 170 96 L 167 97 L 164 97 L 161 98 L 158 99 L 155 99 L 152 100 L 149 101 L 146 102 L 143 103 L 140 105 L 137 106 L 134 107 L 131 109 L 128 110 L 125 112 L 122 114 L 119 116 L 116 118 L 113 120 L 110 122 L 107 125 L 104 127 L 101 130 L 98 133 L 95 136 L 93 139 L 90 142 L 88 145 L 86 148 L 83 151 L 82 154 L 80 157 L 78 160 L 76 163 L 75 166 L 73 169 L 72 172 L 71 175 L 70 178 L 69 181 L 68 184 L 67 187 L 66 190 L 65 193 L 64 196 L 64 199 L 63 202 L 63 205 L 63 208 L 62 211 L 62 214 L 62 217 L 62 220 L 62 223 L 59 225 L 56 226 L 53 227 L 50 229 L 47 231 L 44 233 L 41 235 L 38 237 L 35 239 L 32 242 L 29 245 L 26 248 L 23 251 L 21 254 L 19 257 L 17 260 L 15 263 L 13 266 L 11 269 L 10 272 L 8 275 L 7 278 L 6 281 L 5 284 L 4 287 L 3 290 L 2 293 L 2 296 L 1 299 L 1 302 L 0 305 L 0 308 L 0 311 L 0 314 L 0 317 L 0 320 L 0 323 L 0 326 L 0 329 L 1 332 L 1 335 L 2 338 L 3 341 L 4 344 L 4 347 L 5 350 L 7 353 L 8 356 L 9 359 L 11 362 L 12 365 L 14 368 L 16 371 L 18 374 L 20 377 L 22 380 L 25 383 L 28 386 L 31 389 L 34 392 L 37 394 L 40 397 L 43 399 L 46 401 L 49 403 L 52 405 L 55 406 L 58 407 L 61 409 L 64 410 L 67 411 L 70 412 L 73 413 L 76 414 L 79 414 L 82 415 L 85 415 L 88 416 L 91 416 L 94 416 L 97 417 L 100 417 L 103 417 L 106 417 L 109 417 L 112 417 L 115 417 L 118 417 L 121 417 L 124 417 L 127 417 L 130 417 L 133 417 L 136 417 L 139 417 L 142 417 L 145 417 L 148 417 L 151 417 L 154 417 L 157 417 L 160 417 L 163 417 L 166 417 L 169 417 L 172 417 L 175 417 L 178 417 L 181 417 L 184 417 L 187 417 L 190 417 L 193 417 L 196 417 L 199 417 L 202 417 L 205 417 L 208 417 L 211 417 L 214 417 L 217 417 L 220 417 L 223 417 L 226 417 L 229 417 L 232 417 L 235 417 L 238 417 L 241 417 L 244 417 L 247 417 L 250 417 L 253 417 L 256 417 L 259 417 L 262 417 L 265 417 L 268 417 L 271 417 L 274 417 L 277 417 L 280 417 L 283 417 L 286 417 L 289 417 L 292 417 L 295 417 L 298 417 L 301 417 L 304 417 L 307 417 L 310 417 L 313 417 L 316 417 L 319 417 L 322 417 L 325 417 L 328 417 L 331 417 L 334 417 L 337 417 L 340 417 L 343 417 L 346 417 L 349 417 L 352 417 L 355 417 L 358 417 L 361 417 L 364 417 L 367 417 L 370 417 L 373 417 L 376 417 L 379 417 L 382 417 L 385 417 L 388 417 L 391 417 L 394 417 L 397 417 L 400 417 L 403 417 L 406 417 L 409 417 L 412 417 L 415 416 L 418 416 L 421 416 L 424 416 L 427 415 L 430 415 L 433 414 L 436 413 L 439 413 L 442 412 L 445 411 L 448 410 L 451 408 L 454 407 L 457 405 L 460 404 L 463 402 L 466 400 L 469 398 L 472 396 L 475 394 L 478 391 L 481 388 L 484 385 L 487 382 L 489 379 L 492 376 L 494 373 L 496 370 L 498 367 L 499 364 L 501 361 L 502 358 L 504 355 L 505 352 L 506 349 L 507 346 L 508 343 L 509 340 L 509 337 L 510 334 L 510 331 L 511 328 L 511 325 L 511 322 L 511 319 L 511 316 L 511 313 L 511 310 L 511 307 L 511 304 L 510 301 L 510 298 L 510 295 L 509 292 L 508 289 L 507 286 L 506 283 L 505 280 L 504 277 L 503 274 L 502 271 L 500 268 L 499 265 L 497 262 L 495 259 L 493 256 L 491 253 L 489 250 L 486 247 L 483 244 L 480 241 L 477 238 L 474 236 L 471 234 L 468 232 L 465 230 L 462 228 L 459 226 L 456 225 L 453 224 L 450 222 L 447 221 L 444 220 L 441 219 L 438 219 L 435 218 L 432 217 L 429 217 L 426 216 L 423 216 L 420 215 L 417 215 L 414 215 L 411 215 L 408 215 L 405 215 L 402 214 L 402 211 L 401 208 L 401 205 L 400 202 L 399 199 L 398 196 L 396 193 L 395 190 L 393 187 L 391 184 L 389 181 L 387 178 L 384 175 L 381 172 L 378 169 L 375 167 L 372 165 L 369 163 L 366 161 L 363 160 L 360 158 L 357 157 L 354 156 L 351 155 L 348 155 L 345 154 L 342 154 L 339 153 L 336 153 L 333 153 L 330 153 L 327 153 L 324 154 L 321 154 L 318 155 L 315 156 L 312 156 L 309 158 L 307 156 L 305 153 L 302 150 L 300 147 L 298 144 L 295 141 L 292 138 L 289 135 L 286 132 L 283 129 L 280 127 L 277 124 L 274 122 L 271 120 L 268 118 L 265 116 L 262 114 L 259 112 L 256 111 L 253 109 L 250 108 L 247 106 L 244 105 L 241 104 L 238 103 L 235 102 L 232 101 L 229 100 L 226 99 L 223 98 L 220 97 L 217 97 L 214 96 L 211 96 L 208 95 L 205 95 L 202 95 L 199 95 L 196 94 L 193 94 L 190 94 L 188 94 Z M 188 111 L 191 110 L 194 110 L 197 110 L 200 111 L 203 111 L 206 111 L 209 112 L 212 112 L 215 113 L 218 114 L 221 114 L 224 115 L 227 116 L 230 117 L 233 118 L 236 120 L 239 121 L 242 122 L 245 124 L 248 125 L 251 127 L 254 129 L 257 131 L 260 133 L 263 135 L 266 137 L 269 139 L 272 142 L 275 145 L 278 148 L 281 151 L 284 154 L 287 157 L 289 160 L 291 163 L 294 166 L 295 169 L 297 172 L 299 175 L 301 178 L 303 180 L 306 178 L 309 176 L 312 174 L 315 173 L 318 172 L 321 171 L 324 170 L 327 170 L 330 169 L 333 169 L 336 169 L 339 170 L 342 170 L 345 171 L 348 171 L 351 172 L 354 174 L 357 175 L 360 177 L 363 179 L 366 181 L 369 183 L 372 186 L 374 189 L 377 192 L 379 195 L 381 198 L 382 201 L 383 204 L 384 207 L 385 210 L 386 213 L 386 216 L 387 219 L 387 222 L 387 225 L 387 228 L 387 231 L 390 231 L 393 231 L 396 231 L 399 231 L 402 231 L 405 231 L 408 231 L 411 231 L 414 231 L 417 231 L 420 232 L 423 232 L 426 232 L 429 233 L 432 234 L 435 234 L 438 235 L 441 236 L 444 238 L 447 239 L 450 240 L 453 242 L 456 244 L 459 246 L 462 248 L 465 250 L 468 253 L 471 256 L 474 259 L 477 262 L 479 265 L 481 268 L 483 271 L 485 274 L 486 277 L 488 280 L 489 283 L 490 286 L 491 289 L 492 292 L 493 295 L 494 298 L 494 301 L 495 304 L 495 307 L 495 310 L 495 313 L 495 316 L 495 319 L 495 322 L 495 325 L 494 328 L 494 331 L 493 334 L 493 337 L 492 340 L 491 343 L 490 346 L 489 349 L 487 352 L 486 355 L 484 358 L 482 361 L 480 364 L 478 367 L 476 370 L 473 373 L 470 376 L 467 379 L 464 381 L 461 384 L 458 386 L 455 388 L 452 390 L 449 391 L 446 393 L 443 394 L 440 395 L 437 396 L 434 397 L 431 398 L 428 399 L 425 399 L 422 400 L 419 400 L 416 400 L 413 401 L 410 401 L 407 401 L 404 401 L 401 401 L 398 401 L 395 401 L 392 401 L 389 401 L 386 401 L 383 401 L 380 401 L 377 401 L 374 401 L 371 401 L 368 401 L 365 401 L 362 401 L 359 401 L 356 401 L 353 401 L 350 401 L 347 401 L 344 401 L 341 401 L 338 401 L 335 401 L 332 401 L 329 401 L 326 401 L 323 401 L 320 401 L 317 401 L 314 401 L 311 401 L 308 401 L 305 401 L 302 401 L 299 401 L 296 401 L 293 401 L 290 401 L 287 401 L 284 401 L 281 401 L 278 401 L 275 401 L 272 401 L 269 401 L 266 401 L 263 401 L 260 401 L 257 401 L 254 401 L 251 401 L 248 401 L 245 401 L 242 401 L 239 401 L 236 401 L 233 401 L 230 401 L 227 401 L 224 401 L 221 401 L 218 401 L 215 401 L 212 401 L 209 401 L 206 401 L 203 401 L 200 401 L 197 401 L 194 401 L 191 401 L 188 401 L 185 401 L 182 401 L 179 401 L 176 401 L 173 401 L 170 401 L 167 401 L 164 401 L 161 401 L 158 401 L 155 401 L 152 401 L 149 401 L 146 401 L 143 401 L 140 401 L 137 401 L 134 401 L 131 401 L 128 401 L 125 401 L 122 401 L 119 401 L 116 401 L 113 401 L 110 401 L 107 401 L 104 401 L 101 401 L 98 401 L 95 400 L 92 400 L 89 400 L 86 399 L 83 399 L 80 398 L 77 397 L 74 396 L 71 395 L 68 394 L 65 393 L 62 391 L 59 390 L 56 388 L 53 386 L 50 384 L 47 381 L 44 379 L 41 376 L 38 373 L 35 370 L 33 367 L 31 364 L 29 361 L 27 358 L 25 355 L 24 352 L 22 349 L 21 346 L 20 343 L 19 340 L 18 337 L 18 334 L 17 331 L 17 328 L 16 325 L 16 322 L 16 319 L 16 316 L 16 313 L 16 310 L 16 307 L 16 304 L 17 301 L 18 298 L 18 295 L 19 292 L 20 289 L 22 286 L 23 283 L 24 280 L 26 277 L 27 274 L 29 271 L 31 268 L 33 265 L 36 262 L 38 259 L 41 256 L 44 254 L 47 251 L 50 249 L 53 246 L 56 244 L 59 243 L 62 241 L 65 240 L 68 238 L 71 237 L 74 236 L 77 235 L 77 232 L 77 229 L 77 226 L 78 223 L 78 220 L 78 217 L 78 214 L 78 211 L 79 208 L 79 205 L 80 202 L 80 199 L 81 196 L 82 193 L 83 190 L 84 187 L 85 184 L 86 181 L 87 178 L 89 175 L 90 172 L 92 169 L 94 166 L 95 163 L 97 160 L 100 157 L 102 154 L 104 151 L 107 148 L 110 145 L 112 143 L 115 140 L 118 137 L 121 135 L 124 132 L 127 130 L 130 128 L 133 127 L 136 125 L 139 123 L 142 122 L 145 120 L 148 119 L 151 118 L 154 117 L 157 116 L 160 115 L 163 114 L 166 113 L 169 113 L 172 112 L 175 112 L 178 111 L 181 111 L 184 111 L 187 111 L 188 111 Z" fill="black" fill-rule="evenodd"/>
</svg>
